<svg width="382" height="197" viewBox="0 0 382 197" fill="none" xmlns="http://www.w3.org/2000/svg">
<path d="M175.939 56.1338C281.072 21.915 373.025 14.8386 381.322 40.3281L381.414 40.6279C386.723 58.5108 350.016 87.4439 291.639 114.885C283.823 154.145 251.32 186.908 207.743 194.66C174.88 200.506 143.024 190.829 120.392 171.067C54.9631 184.039 6.5177 182.421 0.601501 164.247C-7.69507 138.757 70.8065 90.3528 175.939 56.1338ZM329.822 57.0898C326.025 57.1886 321.884 57.4009 317.399 57.7461C283.432 60.3601 236.726 70.001 185.843 86.5625C134.96 103.124 91.5285 122.822 62.5302 140.702C58.7012 143.063 55.2278 145.328 52.0995 147.483C55.8974 147.385 60.039 147.174 64.5244 146.829C74.6476 146.05 85.902 144.646 98.0615 142.621C96.5978 139.77 95.274 136.83 94.0995 133.809C104.216 127.934 115.295 122.217 127.103 116.793L129.284 115.799C151.876 105.568 176.392 96.7188 200.842 89.9756C226.08 83.0149 250.49 78.507 271.96 76.8418C278.741 76.3158 285.165 76.079 291.183 76.1269C291.409 77.1443 291.62 78.1689 291.814 79.2002C302.035 74.0211 311.28 68.876 319.393 63.873C323.223 61.5121 326.694 59.2453 329.822 57.0898ZM173.415 1.68945C207.496 -4.37327 240.496 6.25932 263.246 27.5205C245.993 31.0766 228.287 35.3471 210.354 40.293L206.008 41.5049C166.227 52.6952 126.444 66.8875 89.1972 83.1553C96.4046 43.1474 129.214 9.55264 173.415 1.68945Z" fill="#1A2233"/>
</svg>
